<svg xmlns="http://www.w3.org/2000/svg" width="1024" height="1024" viewBox="0 0 1024 1024">
  <!-- App icon background -->
  <rect width="1024" height="1024" rx="220" fill="#FDFBF7"/>

  <!-- Book shadow -->
  <rect x="302" y="231" width="460" height="590" rx="34" fill="#000000" opacity="0.08"/>

  <!-- Book cover -->
  <rect x="288" y="217" width="460" height="590" rx="34" fill="#E7E5E4"/>

  <!-- Page edges -->
  <rect x="712" y="239" width="7" height="546" rx="4" fill="#A8A29E"/>
  <rect x="721" y="239" width="7" height="546" rx="4" fill="#A8A29E"/>
  <rect x="730" y="239" width="7" height="546" rx="4" fill="#A8A29E"/>

  <!-- Bookmark ribbon -->
  <path d="M 400 207 L 448 207 L 448 391 L 424 417 L 400 391 Z" fill="#0D9488"/>

  <!-- AI sparkle glow -->
  <circle cx="602" cy="601" r="64" fill="#0D9488" opacity="0.18"/>

  <!-- AI sparkle (8-point star) -->
  <polygon points="602,555 619,588 652,601 619,614 602,647 589,614 556,601 589,588" fill="#0D9488"/>

  <!-- Sparkle center highlight -->
  <circle cx="602" cy="601" r="12" fill="#FFFFFF"/>
</svg>
